<svg width="63" height="8" viewBox="0 0 63 8" fill="none" xmlns="http://www.w3.org/2000/svg">
<path d="M1.81415 1.45468C6.89634 3.74583 14.7301 5.6127 22.0377 6.27742C23.3308 6.40471 23.9172 6.50371 23.6916 6.56028C23.3759 6.64514 23.3608 6.65928 23.6164 6.67342C23.7818 6.68756 24.8043 6.75828 25.8719 6.84314C31.375 7.225 43.1633 6.99871 42.8325 6.50371C42.7874 6.43299 42.8025 6.40471 42.8927 6.44713C42.9679 6.48956 43.2385 6.47542 43.4791 6.40471C43.9001 6.29156 43.9001 6.29156 43.3137 6.26328C42.9528 6.24913 43.7197 6.07942 45.1932 5.83899C49.7792 5.10356 53.5532 4.21255 56.6507 3.13769C58.4249 2.5154 61.8682 1.1011 62.1088 0.874816C62.1839 0.804101 50.4408 0.74753 31.2848 0.761672L0.310547 0.775815L1.81415 1.45468Z" fill="#151618"/>
</svg>
