<svg width="26" height="50" viewBox="0 0 26 50" fill="none" xmlns="http://www.w3.org/2000/svg">
<path d="M13.0794 1.28965C12.3892 2.0204 10.7539 3.56786 9.4486 4.75711C5.09768 8.68307 4.2125 10.0872 4.09247 13.2968C4.00245 15.9046 4.63259 17.8819 6.26793 20.1314C6.70302 20.7332 7.0631 21.1917 7.0631 21.1344C7.0631 21.0914 6.79304 20.5326 6.46297 19.9022C5.20271 17.495 4.82763 14.572 5.51777 12.4944C6.16291 10.5458 7.1081 9.37083 10.3038 6.54815C10.9789 5.96069 11.8041 5.14397 12.1492 4.75711L12.7943 4.04069L12.7043 7.04964C12.6593 9.04128 12.5542 10.4168 12.3892 11.1332C11.8341 13.5547 10.7539 15.4747 8.78846 17.581C7.36316 19.1141 6.95807 19.9881 7.34816 20.7045C7.40817 20.8335 7.51319 21.378 7.5732 21.8938L7.66322 22.8395L6.80804 23.3839C3.91243 25.218 1.87201 27.8687 1.04683 30.8777C0.821785 31.68 0.731766 32.4538 0.731766 33.7003C0.716763 36.3511 1.22687 38.5576 2.51714 41.3373L3.19228 42.7988L2.95223 43.9451C2.71218 45.1057 2.63717 48.5588 2.84721 49.4615C2.92223 49.8197 3.01224 49.8914 3.38732 49.8914H3.83742L3.94244 48.043C4.33252 41.452 6.613 37.6263 11.9691 34.5744C16.095 32.2245 17.3102 30.9063 20.0558 25.8054C22.2163 21.7505 22.9064 20.6759 24.5718 18.6269L25.517 17.4663L24.1817 18.0108C22.0212 18.8992 18.9156 19.7875 15.1648 20.5899C11.564 21.3493 9.9287 21.7935 8.68344 22.3953C8.29335 22.5816 7.93328 22.7392 7.88827 22.7392C7.84326 22.7392 7.82826 22.166 7.87327 21.4496C7.94828 19.9165 7.96328 19.8878 10.2888 17.5666C11.549 16.3201 12.0741 15.661 12.5092 14.8443C13.4694 13.0246 13.5445 12.4944 13.4394 8.98397C13.3344 5.68845 13.5145 3.5392 14.1146 1.14637C14.2646 0.530254 14.3846 0.014431 14.3696 0.000102997C14.3546 -0.014225 13.7695 0.573238 13.0794 1.28965ZM19.9958 23.7565C16.9802 29.058 14.8797 31.3075 10.0637 34.4168C9.11853 35.0329 8.00829 35.8066 7.60321 36.1218C6.1179 37.2968 4.42254 39.6179 3.77741 41.3517C3.62737 41.7672 3.46234 42.0538 3.41733 41.9821C3.17728 41.6239 2.53214 38.7009 2.38211 37.3397C1.88701 32.8263 3.64238 28.8717 7.33315 26.221C9.4486 24.6878 11.369 23.9857 15.2398 23.3123C16.8902 23.0257 19.5157 22.295 20.6409 21.8222C20.896 21.7219 21.106 21.6502 21.1361 21.6645C21.1511 21.6789 20.6409 22.6245 19.9958 23.7565Z" fill="#151618"/>
</svg>
