<svg width="19" height="10" viewBox="0 0 19 10" fill="none" xmlns="http://www.w3.org/2000/svg">
<path d="M6.57266 1.03579C3.14719 1.73469 0.818469 4.64441 0.803445 8.21023C0.803445 8.9234 0.773397 8.98045 0.337701 9.12308C-0.443546 9.37982 0.127365 9.50819 2.54623 9.60804C6.00174 9.75067 8.12013 9.36556 9.92301 8.25302C10.4188 7.95349 11.6658 6.99785 12.7024 6.12779C14.8058 4.38767 15.8875 3.64597 17.6604 2.74739L18.8473 2.14833L17.4049 2.04848C16.6237 2.00569 15.2265 1.82027 14.295 1.66337C13.3635 1.50648 11.8911 1.24974 11.0198 1.10711C9.18683 0.793313 7.86472 0.764787 6.57266 1.03579ZM11.5306 2.8187C12.2667 2.98986 13.4086 3.17528 14.0396 3.21807L15.2114 3.31792L13.5738 4.57309C11.0799 6.48437 9.42721 7.35443 7.30883 7.86791C6.2271 8.13892 1.38938 8.83782 1.28421 8.73798C1.149 8.60961 1.58469 7.28312 2.11053 6.2419C3.02699 4.43046 4.75475 3.13249 6.93323 2.60475C8.04501 2.33375 9.78779 2.41933 11.5306 2.8187Z" fill="#151618"/>
</svg>
