<svg width="19" height="46" viewBox="0 0 19 46" fill="none" xmlns="http://www.w3.org/2000/svg">
<path d="M5.68101 0.868484C6.57578 4.09682 6.84421 8.32952 6.41174 12.2896C5.87487 17.2254 6.32226 18.7176 9.51361 22.7781C10.3786 23.8686 11.3479 25.289 11.6909 25.9203C12.6602 27.7999 13.1822 30.4687 13.1971 33.6827V35.0171L12.8392 34.8736C12.0041 34.5723 10.4979 34.4431 6.70999 34.3714C4.50289 34.3283 2.22122 34.2279 1.63962 34.1705C1.07293 34.0988 0.580811 34.0701 0.565898 34.0844C0.536072 34.0988 0.834329 34.3283 1.23698 34.601C2.92213 35.7632 4.62219 37.2697 6.59069 39.3502C7.75389 40.5698 9.14079 41.9185 9.69257 42.3346C12.0488 44.1281 14.748 45.1755 18.0139 45.5486C19.3561 45.7064 18.8192 45.2186 16.5525 44.2716C12.9436 42.7507 11.1391 41.5168 8.36532 38.6902C7.32142 37.6284 6.05383 36.4949 5.5617 36.1649L4.66693 35.591H6.42665C11.0496 35.591 13.6594 36.4519 15.8814 38.7045C16.985 39.8093 17.7753 41.1868 18.178 42.6646C18.2973 43.1381 18.4315 43.5542 18.4762 43.5972C18.6254 43.7264 18.5806 41.9042 18.4166 40.8998C18.0736 38.8193 16.3437 36.5236 14.3603 35.5192L13.4953 35.0888V32.7214C13.4953 28.0152 13.0629 26.3938 10.7961 22.7207C7.79863 17.8423 7.30651 15.9197 7.39599 9.16171C7.42581 7.06688 7.47055 5.3451 7.48546 5.35946C7.48546 5.3738 7.79863 5.77555 8.15654 6.24904C8.52936 6.72253 9.85661 8.14299 11.1242 9.40563C14.1962 12.4618 15.3744 14.2266 16.1051 16.881C16.9253 19.7937 16.2542 23.8686 14.3156 27.7999C13.9576 28.5317 13.6892 29.1343 13.7041 29.1343C13.7339 29.1343 13.9875 28.79 14.2857 28.3595C16.627 24.9734 17.8052 21.1568 17.6262 17.5841C17.5218 15.6327 17.1192 14.1118 16.2691 12.4187C15.4042 10.6683 14.405 9.43433 11.5119 6.55035C9.26009 4.29769 7.70916 2.63331 6.08365 0.796745L5.45731 0.0793381L5.68101 0.868484Z" fill="#151618"/>
</svg>
