<svg width="69" height="27" viewBox="0 0 69 27" fill="none" xmlns="http://www.w3.org/2000/svg">
<path d="M11.0565 4.6404C10.876 12.3893 11.2971 15.0107 13.3276 18.9139C14.3955 20.9592 16.1251 23.3501 17.3584 24.4735C17.6592 24.7472 17.8999 25.0065 17.8999 25.0497C17.8999 25.1073 14.1548 25.1217 9.59753 25.0929C5.02522 25.0641 1.12973 25.0929 0.9342 25.1361C0.753713 25.1793 0.513065 25.3809 0.422822 25.5682C0.287458 25.8707 0.302498 25.9715 0.528106 26.2163C0.798835 26.5044 0.964283 26.5044 34.4745 26.5044C57.4113 26.5044 68.2405 26.4612 68.4511 26.3604C68.8421 26.1587 68.8421 25.4098 68.4511 25.2081C68.2555 25.1217 65.1572 25.0641 59.4117 25.0641H50.6732L51.5906 24.0126C54.2077 21.06 55.9073 17.8193 57.0203 13.6856C57.3361 12.5477 57.3662 12.058 57.4113 6.29677L57.4865 0.146618H34.3241H11.1617L11.0565 4.6404Z" fill="#151618"/>
</svg>
